<?xml version="1.0" encoding="UTF-8" standalone="no"?>
<!DOCTYPE svg PUBLIC "-//W3C//DTD SVG 1.1//EN" "http://www.w3.org/Graphics/SVG/1.1/DTD/svg11.dtd">
<svg width="100%" height="100%" viewBox="0 0 32 32" version="1.1" xmlns="http://www.w3.org/2000/svg" xmlns:xlink="http://www.w3.org/1999/xlink" xml:space="preserve" xmlns:serif="http://www.serif.com/" style="fill-rule:evenodd;clip-rule:evenodd;stroke-linejoin:round;stroke-miterlimit:2;">
    <rect id="Artboard1" x="0" y="0" width="32" height="32" style="fill:none;"/>
    <g id="Artboard11" serif:id="Artboard1">
        <g transform="matrix(0.657676,0,0,0.657676,-2297.75,-387.419)">
            <path d="M3500.19,614.394L3509.81,617.628L3509.81,623.025L3494.27,616.697L3494.27,612.021L3509.81,605.693L3509.81,611.072L3500.19,614.394Z" style="fill:rgb(55,57,64);fill-rule:nonzero;"/>
        </g>
        <g transform="matrix(0.657676,0,0,0.657676,-2297.75,-387.419)">
            <path d="M3515.5,627.296L3511.3,627.296L3520.04,599.505L3524.26,599.505L3515.5,627.296Z" style="fill:rgb(55,57,64);fill-rule:nonzero;"/>
        </g>
        <g transform="matrix(0.657676,0,0,0.657676,-2297.75,-387.419)">
            <path d="M3535.96,614.341L3526.4,611.089L3526.4,605.71L3541.85,612.039L3541.85,616.714L3526.4,623.042L3526.4,617.664L3535.96,614.341Z" style="fill:rgb(55,57,64);fill-rule:nonzero;"/>
        </g>
    </g>
</svg>
