<?xml version="1.0" encoding="UTF-8" standalone="no"?>
<!DOCTYPE svg PUBLIC "-//W3C//DTD SVG 1.1//EN" "http://www.w3.org/Graphics/SVG/1.1/DTD/svg11.dtd">
<svg width="100%" height="100%" viewBox="0 0 32 32" version="1.1" xmlns="http://www.w3.org/2000/svg" xmlns:xlink="http://www.w3.org/1999/xlink" xml:space="preserve" xmlns:serif="http://www.serif.com/" style="fill-rule:evenodd;clip-rule:evenodd;stroke-linejoin:round;stroke-miterlimit:2;">
    <g id="Artboard1">
        <g transform="matrix(0.838744,0,0,0.861382,-2907.43,-590.623)">
            <path d="M3504.29,697.767C3504.29,693.232 3500.51,689.549 3495.85,689.549L3475.12,689.549C3470.46,689.549 3466.68,693.232 3466.68,697.767L3466.68,710.72C3466.68,715.255 3470.46,718.938 3475.12,718.938L3495.85,718.938C3500.51,718.938 3504.29,715.255 3504.29,710.72C3504.29,710.72 3504.29,697.767 3504.29,697.767ZM3500.71,697.767L3500.71,710.72C3500.71,713.333 3498.53,715.454 3495.85,715.454C3495.85,715.454 3475.12,715.454 3475.12,715.454C3472.44,715.454 3470.26,713.333 3470.26,710.72C3470.26,710.72 3470.26,697.767 3470.26,697.767C3470.26,695.154 3472.44,693.033 3475.12,693.033C3475.12,693.033 3495.85,693.033 3495.85,693.033C3498.53,693.033 3500.71,695.154 3500.71,697.767Z" style="fill:rgb(55,57,64);"/>
        </g>
        <g transform="matrix(1.2365,0,0,1,-4286.89,-686.789)">
            <path d="M3473.82,700.96L3480.29,700.96C3480.96,700.96 3481.5,700.288 3481.5,699.459C3481.5,698.63 3480.96,697.958 3480.29,697.958L3473.82,697.958C3473.15,697.958 3472.61,698.63 3472.61,699.459C3472.61,700.288 3473.15,700.96 3473.82,700.96Z" style="fill:rgb(55,57,64);"/>
        </g>
        <g transform="matrix(0.309126,0,0,1,-1052.35,-686.789)">
            <path d="M3473.82,700.958L3480.29,700.958C3482.97,700.958 3485.14,700.286 3485.14,699.459C3485.14,698.632 3482.97,697.96 3480.29,697.96L3473.82,697.96C3471.14,697.96 3468.97,698.632 3468.97,699.459C3468.97,700.286 3471.14,700.958 3473.82,700.958Z" style="fill:rgb(55,57,64);"/>
        </g>
        <g transform="matrix(2.31845,0,0,1,-8045.36,-680.128)">
            <path d="M3473.82,700.959L3480.29,700.959C3480.65,700.959 3480.94,700.287 3480.94,699.459C3480.94,698.631 3480.65,697.959 3480.29,697.959L3473.82,697.959C3473.46,697.959 3473.17,698.631 3473.17,699.459C3473.17,700.287 3473.46,700.959 3473.82,700.959Z" style="fill:rgb(55,57,64);"/>
        </g>
    </g>
</svg>
