<?xml version="1.0" encoding="UTF-8" standalone="no"?>
<!DOCTYPE svg PUBLIC "-//W3C//DTD SVG 1.1//EN" "http://www.w3.org/Graphics/SVG/1.1/DTD/svg11.dtd">
<svg width="100%" height="100%" viewBox="0 0 32 32" version="1.1" xmlns="http://www.w3.org/2000/svg" xmlns:xlink="http://www.w3.org/1999/xlink" xml:space="preserve" xmlns:serif="http://www.serif.com/" style="fill-rule:evenodd;clip-rule:evenodd;stroke-linejoin:round;stroke-miterlimit:2;">
    <rect id="Artboard1" x="0" y="0" width="32" height="32" style="fill:none;"/>
    <g id="Artboard11" serif:id="Artboard1">
        <g transform="matrix(0.846154,0,0,0.846154,-2426.96,-11.7082)">
            <path d="M2872.14,23.291L2902.14,23.291C2904.09,23.291 2905.68,21.703 2905.68,19.746C2905.68,17.789 2904.09,16.201 2902.14,16.201L2872.14,16.201C2870.18,16.201 2868.59,17.789 2868.59,19.746C2868.59,21.703 2870.18,23.291 2872.14,23.291Z" style="fill:rgb(55,57,64);"/>
        </g>
        <g transform="matrix(0.846154,0,0,0.846154,-2426.96,-0.708157)">
            <path d="M2872.14,23.291L2902.14,23.291C2904.09,23.291 2905.68,21.703 2905.68,19.746C2905.68,17.789 2904.09,16.201 2902.14,16.201L2872.14,16.201C2870.18,16.201 2868.59,17.789 2868.59,19.746C2868.59,21.703 2870.18,23.291 2872.14,23.291Z" style="fill:rgb(55,57,64);"/>
        </g>
        <g transform="matrix(0.846154,0,0,0.846154,-2426.96,10.2918)">
            <path d="M2872.14,23.291L2902.14,23.291C2904.09,23.291 2905.68,21.703 2905.68,19.746C2905.68,17.789 2904.09,16.201 2902.14,16.201L2872.14,16.201C2870.18,16.201 2868.59,17.789 2868.59,19.746C2868.59,21.703 2870.18,23.291 2872.14,23.291Z" style="fill:rgb(55,57,64);"/>
        </g>
    </g>
</svg>
